<svg width="6279" height="5292" viewBox="0 0 6279 5292" fill="none" xmlns="http://www.w3.org/2000/svg">
<path d="M6228.64 2645.71C6228.64 4071.6 4853.86 5241.41 3139.32 5241.41C1424.78 5241.41 50 4071.6 50 2645.71C50 1219.81 1424.78 50 3139.32 50C4853.86 50 6228.64 1219.81 6228.64 2645.71Z" stroke="#222222" stroke-opacity="0.4" stroke-width="100"/>
<path d="M6112.59 2645.71C6112.59 3950.02 4791.15 5023.19 3139.32 5023.19C1487.48 5023.19 166.045 3950.02 166.045 2645.71C166.045 1341.39 1487.48 268.227 3139.32 268.227C4791.15 268.227 6112.59 1341.39 6112.59 2645.71Z" stroke="#222222" stroke-opacity="0.4" stroke-width="90"/>
<path d="M6014.48 2645.71C6014.48 3861.26 4737.96 4863.77 3139.32 4863.77C1540.68 4863.77 264.155 3861.26 264.155 2645.71C264.155 1430.16 1540.68 427.645 3139.32 427.645C4737.96 427.645 6014.48 1430.16 6014.48 2645.71Z" stroke="#222222" stroke-opacity="0.4" stroke-width="85"/>
<path d="M5921.37 2645.71C5921.37 3203.18 5613.76 3710.8 5110.56 4080.34C4607.38 4449.86 3910.56 4679.48 3139.32 4679.48C2368.08 4679.48 1671.26 4449.86 1168.08 4080.34C664.879 3710.8 357.263 3203.18 357.263 2645.71C357.263 2088.24 664.879 1580.61 1168.08 1211.07C1671.26 841.549 2368.08 611.931 3139.32 611.931C3910.56 611.931 4607.38 841.549 5110.56 1211.07C5613.76 1580.61 5921.37 2088.24 5921.37 2645.71Z" stroke="#222222" stroke-opacity="0.4" stroke-width="70"/>
<path d="M5839.63 2645.71C5839.63 3151.83 5542.2 3613.83 5053.61 3950.8C4565.16 4287.65 3888.46 4497.13 3139.32 4497.13C2390.17 4497.13 1713.48 4287.65 1225.03 3950.8C736.441 3613.83 439.009 3151.83 439.009 2645.71C439.009 2139.58 736.441 1677.58 1225.03 1340.62C1713.48 1003.76 2390.17 794.285 3139.32 794.285C3888.46 794.285 4565.16 1003.76 5053.61 1340.62C5542.2 1677.58 5839.63 2139.58 5839.63 2645.71Z" stroke="#222222" stroke-opacity="0.4" stroke-width="70"/>
<path d="M5759.46 2645.71C5759.46 3115.12 5471.75 3544.5 4997.48 3858.15C4523.48 4171.62 3866.63 4366.65 3139.32 4366.65C2412.01 4366.65 1755.16 4171.62 1281.16 3858.15C806.893 3544.5 519.182 3115.12 519.182 2645.71C519.182 2176.29 806.893 1746.91 1281.16 1433.26C1755.16 1119.79 2412.01 924.762 3139.32 924.762C3866.63 924.762 4523.48 1119.79 4997.48 1433.26C5471.75 1746.91 5759.46 2176.29 5759.46 2645.71Z" stroke="#222222" stroke-opacity="0.4" stroke-width="70"/>
<path d="M5759.46 2645.71C5759.46 3062.9 5473.92 3446.79 4998.94 3728.29C4524.73 4009.34 3867.34 4184.3 3139.32 4184.3C2411.3 4184.3 1753.91 4009.34 1279.7 3728.29C804.724 3446.79 519.182 3062.9 519.182 2645.71C519.182 2228.51 804.724 1844.62 1279.7 1563.12C1753.91 1282.08 2411.3 1107.12 3139.32 1107.12C3867.34 1107.12 4524.73 1282.08 4998.94 1563.12C5473.92 1844.62 5759.46 2228.51 5759.46 2645.71Z" stroke="#222222" stroke-opacity="0.4" stroke-width="70"/>
<path d="M5774.46 2645.71C5774.46 3024.51 5485.33 3372.14 5007.4 3626.25C4530.34 3879.89 3869.91 4037.38 3139.32 4037.38C2408.73 4037.38 1748.3 3879.89 1271.24 3626.25C793.309 3372.14 504.182 3024.51 504.182 2645.71C504.182 2266.9 793.309 1919.27 1271.24 1665.16C1748.3 1411.52 2408.73 1254.03 3139.32 1254.03C3869.91 1254.03 4530.34 1411.52 5007.4 1665.16C5485.33 1919.27 5774.46 2266.9 5774.46 2645.71Z" stroke="#222222" stroke-opacity="0.4" stroke-width="40"/>
</svg>
